0
SECTION
2
HEADER
9
$INSUNITS
70
4
9
$ACADVER
1
AC1014
9
$HANDSEED
5
FFFF
0
ENDSEC
0
SECTION
2
TABLES
0
TABLE
2
VPORT
5
8
100
AcDbSymbolTable
0
ENDTAB
0
TABLE
2
LTYPE
5
5
100
AcDbSymbolTable
0
LTYPE
5
14
100
AcDbSymbolTableRecord
100
AcDbLinetypeTableRecord
2
BYBLOCK
70
0
0
LTYPE
5
15
100
AcDbSymbolTableRecord
100
AcDbLinetypeTableRecord
2
BYLAYER
70
0
0
ENDTAB
0
TABLE
2
LAYER
5
2
100
AcDbSymbolTable
70
2
0
LAYER
5
50
100
AcDbSymbolTableRecord
100
AcDbLayerTableRecord
2
0
70
0
6
CONTINUOUS
0
ENDTAB
0
TABLE
2
STYLE
5
3
100
AcDbSymbolTable
70
1
0
STYLE
5
11
100
AcDbSymbolTableRecord
100
AcDbTextStyleTableRecord
2
STANDARD
70
0
0
ENDTAB
0
TABLE
2
VIEW
5
6
100
AcDbSymbolTable
70
0
0
ENDTAB
0
TABLE
2
UCS
5
7
100
AcDbSymbolTable
70
0
0
ENDTAB
0
TABLE
2
APPID
5
9
100
AcDbSymbolTable
70
2
0
APPID
5
12
100
AcDbSymbolTableRecord
100
AcDbRegAppTableRecord
2
ACAD
70
0
0
ENDTAB
0
TABLE
2
DIMSTYLE
5
A
100
AcDbSymbolTable
70
1
0
ENDTAB
0
TABLE
2
BLOCK_RECORD
5
1
100
AcDbSymbolTable
70
1
0
BLOCK_RECORD
5
1F
100
AcDbSymbolTableRecord
100
AcDbBlockTableRecord
2
*MODEL_SPACE
0
BLOCK_RECORD
5
1B
100
AcDbSymbolTableRecord
100
AcDbBlockTableRecord
2
*PAPER_SPACE
0
ENDTAB
0
ENDSEC
0
SECTION
2
BLOCKS
0
BLOCK
5
20
100
AcDbEntity
100
AcDbBlockBegin
2
*MODEL_SPACE
0
ENDBLK
5
21
100
AcDbEntity
100
AcDbBlockEnd
0
BLOCK
5
1C
100
AcDbEntity
100
AcDbBlockBegin
2
*PAPER_SPACE
0
ENDBLK
5
1D
100
AcDbEntity
100
AcDbBlockEnd
0
ENDSEC
0
SECTION
2
ENTITIES
0
LINE
5
100
100
AcDbEntity
8
0
100
AcDbLine
10
-32.539117268793888
20
-51.418856474881025
30
0
11
-42.199999999999996
21
-42.720158592215839
31
0
0
LINE
5
101
100
AcDbEntity
8
0
100
AcDbLine
10
-42.199999999999996
20
-42.720158592215839
30
0
11
-46.200000000000038
21
-42.72015859221581
31
0
0
LINE
5
102
100
AcDbEntity
8
0
100
AcDbLine
10
-46.200000000000038
20
-42.72015859221581
30
0
11
-48.093617319683524
21
-46.000000000000007
31
0
0
LINE
5
103
100
AcDbEntity
8
0
100
AcDbLine
10
-48.093617319683524
20
-46.000000000000007
30
0
11
-50.138689894897695
21
-46
31
0
0
LINE
5
104
100
AcDbEntity
8
0
100
AcDbLine
10
-61.077383028493983
20
-41.473117842560619
30
0
11
-50.138689894897695
21
-46
31
0
0
SPLINE
5
105
100
AcDbEntity
8
0
100
AcDbSpline
70
1064
71
5
72
19
73
13
74
0
42
0.000000001
43
0.0000000001
44
0.0000000001
40
-0.85463164943592385
40
-0.85463164943592385
40
-0.85463164943592385
40
-0.85463164943592385
40
-0.85463164943592385
40
-0.85463164943592385
40
-0.79999999999999993
40
-0.69999999999999996
40
-0.59999999999999998
40
-0.5
40
-0.40000000000000002
40
-0.30000000000000004
40
-0.20000000000000001
40
-0.12147150531012628
40
-0.12147150531012628
40
-0.12147150531012628
40
-0.12147150531012628
40
-0.12147150531012628
40
-0.12147150531012628
10
-61.077383028493422
20
-41.473117842562495
30
0
10
-61.449772243708139
20
-40.244230115813899
30
0
10
-62.477448480251695
20
-36.741523454897063
30
0
10
-64.043566394812515
20
-30.877706764494771
30
0
10
-65.909574809143777
20
-22.616521446827306
30
0
10
-67.624509075288998
20
-12.219743056847348
30
0
10
-68.481022564270035
20
-1.4071758623399981
30
0
10
-68.022937180995243
20
9.0410594744790505
30
0
10
-66.217163841954857
20
19.246064041697018
30
0
10
-63.99969142201293
20
27.351325134513708
30
0
10
-62.091776174049031
20
33.227227123331204
30
0
10
-60.793648139816561
20
36.921785832728375
30
0
10
-60.210802258086545
20
38.530428919658497
30
0
0
LINE
5
106
100
AcDbEntity
8
0
100
AcDbLine
10
-52.777730148235605
20
41.5
30
0
11
-60.210802258086559
21
38.530428919658505
31
0
0
LINE
5
107
100
AcDbEntity
8
0
100
AcDbLine
10
-52.777730148235605
20
41.5
30
0
11
52.777730148235605
21
41.5
31
0
0
LINE
5
108
100
AcDbEntity
8
0
100
AcDbLine
10
60.210802258086588
20
38.530428919658384
30
0
11
52.777730148235605
21
41.5
31
0
0
SPLINE
5
109
100
AcDbEntity
8
0
100
AcDbSpline
70
1064
71
5
72
19
73
13
74
0
42
0.000000001
43
0.0000000001
44
0.0000000001
40
0.12147150531012607
40
0.12147150531012607
40
0.12147150531012607
40
0.12147150531012607
40
0.12147150531012607
40
0.12147150531012607
40
0.20000000000000001
40
0.30000000000000004
40
0.40000000000000002
40
0.5
40
0.59999999999999998
40
0.69999999999999996
40
0.79999999999999993
40
0.85463164943592485
40
0.85463164943592485
40
0.85463164943592485
40
0.85463164943592485
40
0.85463164943592485
40
0.85463164943592485
10
60.210802258086531
20
38.530428919658519
30
0
10
60.793648139816561
20
36.921785832728389
30
0
10
62.091776174049038
20
33.227227123331218
30
0
10
63.999691422012937
20
27.351325134513718
30
0
10
66.217163841954857
20
19.246064041697014
30
0
10
68.022937180995243
20
9.0410594744790416
30
0
10
68.481022564270035
20
-1.407175862340007
30
0
10
67.624509075288998
20
-12.219743056847356
30
0
10
65.909574809143777
20
-22.616521446827331
30
0
10
64.043566394812501
20
-30.877706764494825
30
0
10
62.477448480251653
20
-36.741523454897148
30
0
10
61.44977224370809
20
-40.244230115813991
30
0
10
61.077383028493379
20
-41.473117842562615
30
0
0
LINE
5
110
100
AcDbEntity
8
0
100
AcDbLine
10
50.138689894897659
20
-46.000000000000085
30
0
11
61.077383028493387
21
-41.473117842562615
31
0
0
LINE
5
111
100
AcDbEntity
8
0
100
AcDbLine
10
50.138689894897659
20
-46.000000000000085
30
0
11
48.093617319683503
21
-46.000000000000078
31
0
0
LINE
5
112
100
AcDbEntity
8
0
100
AcDbLine
10
48.093617319683503
20
-46.000000000000078
30
0
11
46.199999999999989
21
-42.720158592215839
31
0
0
LINE
5
113
100
AcDbEntity
8
0
100
AcDbLine
10
46.199999999999989
20
-42.720158592215839
30
0
11
42.199999999999989
21
-42.720158592215839
31
0
0
LINE
5
114
100
AcDbEntity
8
0
100
AcDbLine
10
42.199999999999989
20
-42.720158592215839
30
0
11
32.539117268793888
21
-51.418856474881018
31
0
0
LINE
5
115
100
AcDbEntity
8
0
100
AcDbLine
10
32.539117268793888
20
-51.418856474881018
30
0
11
-32.539117268793888
21
-51.418856474881025
31
0
0
CIRCLE
5
116
100
AcDbEntity
8
0
100
AcDbCircle
10
58.600340929637568
20
43.000000640749931
30
0
40
0.99999999999999645
0
CIRCLE
5
117
100
AcDbEntity
8
0
100
AcDbCircle
10
-58.600340929637525
20
43.000000640749988
30
0
40
0.99999999999999645
0
CIRCLE
5
118
100
AcDbEntity
8
0
100
AcDbCircle
10
44.200000000000003
20
-46.184260207353596
30
0
40
1.0000000000000053
0
CIRCLE
5
119
100
AcDbEntity
8
0
100
AcDbCircle
10
-44.200000000000031
20
-46.18426020735356
30
0
40
1.0000000000000053
0
SPLINE
5
120
100
AcDbEntity
8
0
100
AcDbSpline
70
1064
71
5
72
21
73
15
74
0
42
0.000000001
43
0.0000000001
44
0.0000000001
40
-1
40
-1
40
-1
40
-1
40
-1
40
-1
40
-0.89999999999999991
40
-0.79999999999999993
40
-0.69999999999999996
40
-0.59999999999999998
40
-0.5
40
-0.40000000000000002
40
-0.30000000000000004
40
-0.20000000000000001
40
-0.10000000000000001
40
0
40
0
40
0
40
0
40
0
40
0
10
66.500000000000014
20
-57.000000000000036
30
0
10
67.349678818896081
20
-54.998282144313393
30
0
10
68.993565126551516
20
-50.894321494564998
30
0
10
71.293112076437012
20
-44.437170723407498
30
0
10
74.012240170776835
20
-35.328872698718982
30
0
10
76.738439035650316
20
-23.654031015989183
30
0
10
78.624509075288998
20
-12.219743056847348
30
0
10
79.481022564270035
20
-1.4071758623399981
30
0
10
79.022937180995243
20
9.0410594744790505
30
0
10
77.136139049767266
20
19.703961141214343
30
0
10
74.147948311849802
20
30.412697513710061
30
0
10
71.211635492638237
20
38.781143413154382
30
0
10
68.883247754998564
20
44.772878023165539
30
0
10
67.299619348530086
20
48.616214866007056
30
0
10
66.500000000000043
20
50.5
30
0
0
LINE
5
121
100
AcDbEntity
8
0
100
AcDbLine
10
66.500000000000043
20
50.499999999999986
30
0
11
-66.500000000000043
21
50.500000000000007
31
0
0
SPLINE
5
122
100
AcDbEntity
8
0
100
AcDbSpline
70
1064
71
5
72
21
73
15
74
0
42
0.000000001
43
0.0000000001
44
0.0000000001
40
0
40
0
40
0
40
0
40
0
40
0
40
0.10000000000000001
40
0.20000000000000001
40
0.30000000000000004
40
0.40000000000000002
40
0.5
40
0.59999999999999998
40
0.69999999999999996
40
0.79999999999999993
40
0.89999999999999991
40
1
40
1
40
1
40
1
40
1
40
1
10
-66.500000000000043
20
50.5
30
0
10
-67.299619348530086
20
48.616214866007056
30
0
10
-68.883247754998564
20
44.772878023165539
30
0
10
-71.211635492638237
20
38.781143413154382
30
0
10
-74.147948311849802
20
30.412697513710061
30
0
10
-77.136139049767266
20
19.703961141214343
30
0
10
-79.022937180995243
20
9.0410594744790505
30
0
10
-79.481022564270035
20
-1.4071758623399981
30
0
10
-78.624509075288998
20
-12.219743056847348
30
0
10
-76.738439035650316
20
-23.654031015989183
30
0
10
-74.012240170776835
20
-35.328872698718982
30
0
10
-71.293112076437012
20
-44.437170723407498
30
0
10
-68.993565126551516
20
-50.894321494564998
30
0
10
-67.349678818896081
20
-54.998282144313393
30
0
10
-66.500000000000014
20
-57.000000000000036
30
0
0
LINE
5
123
100
AcDbEntity
8
0
100
AcDbLine
10
-66.500000000000014
20
-57.000000000000043
30
0
11
66.500000000000014
21
-57.000000000000043
31
0
0
ENDSEC
0
SECTION
2
OBJECTS
0
DICTIONARY
5
C
100
AcDbDictionary
3
ACAD_GROUP
350
D
3
ACAD_MLINESTYLE
350
17
0
DICTIONARY
5
D
100
AcDbDictionary
0
DICTIONARY
5
1A
330
C
100
AcDbDictionary
0
DICTIONARY
5
17
100
AcDbDictionary
0
ENDSEC
0
EOF
