0
SECTION
2
HEADER
9
$INSUNITS
70
4
9
$ACADVER
1
AC1014
9
$HANDSEED
5
FFFF
0
ENDSEC
0
SECTION
2
TABLES
0
TABLE
2
VPORT
5
8
100
AcDbSymbolTable
0
ENDTAB
0
TABLE
2
LTYPE
5
5
100
AcDbSymbolTable
0
LTYPE
5
14
100
AcDbSymbolTableRecord
100
AcDbLinetypeTableRecord
2
BYBLOCK
70
0
0
LTYPE
5
15
100
AcDbSymbolTableRecord
100
AcDbLinetypeTableRecord
2
BYLAYER
70
0
0
ENDTAB
0
TABLE
2
LAYER
5
2
100
AcDbSymbolTable
70
2
0
LAYER
5
50
100
AcDbSymbolTableRecord
100
AcDbLayerTableRecord
2
0
70
0
6
CONTINUOUS
0
ENDTAB
0
TABLE
2
STYLE
5
3
100
AcDbSymbolTable
70
1
0
STYLE
5
11
100
AcDbSymbolTableRecord
100
AcDbTextStyleTableRecord
2
STANDARD
70
0
0
ENDTAB
0
TABLE
2
VIEW
5
6
100
AcDbSymbolTable
70
0
0
ENDTAB
0
TABLE
2
UCS
5
7
100
AcDbSymbolTable
70
0
0
ENDTAB
0
TABLE
2
APPID
5
9
100
AcDbSymbolTable
70
2
0
APPID
5
12
100
AcDbSymbolTableRecord
100
AcDbRegAppTableRecord
2
ACAD
70
0
0
ENDTAB
0
TABLE
2
DIMSTYLE
5
A
100
AcDbSymbolTable
70
1
0
ENDTAB
0
TABLE
2
BLOCK_RECORD
5
1
100
AcDbSymbolTable
70
1
0
BLOCK_RECORD
5
1F
100
AcDbSymbolTableRecord
100
AcDbBlockTableRecord
2
*MODEL_SPACE
0
BLOCK_RECORD
5
1B
100
AcDbSymbolTableRecord
100
AcDbBlockTableRecord
2
*PAPER_SPACE
0
ENDTAB
0
ENDSEC
0
SECTION
2
BLOCKS
0
BLOCK
5
20
100
AcDbEntity
100
AcDbBlockBegin
2
*MODEL_SPACE
0
ENDBLK
5
21
100
AcDbEntity
100
AcDbBlockEnd
0
BLOCK
5
1C
100
AcDbEntity
100
AcDbBlockBegin
2
*PAPER_SPACE
0
ENDBLK
5
1D
100
AcDbEntity
100
AcDbBlockEnd
0
ENDSEC
0
SECTION
2
ENTITIES
0
CIRCLE
5
100
100
AcDbEntity
8
0
100
AcDbCircle
10
58.600340929637568
20
43.000000640749931
30
0
40
0.99999999999999645
0
CIRCLE
5
101
100
AcDbEntity
8
0
100
AcDbCircle
10
44.200000000000003
20
-46.184260207353596
30
0
40
1.0000000000000053
0
CIRCLE
5
102
100
AcDbEntity
8
0
100
AcDbCircle
10
-58.600340929637525
20
43.000000640749988
30
0
40
0.99999999999999645
0
CIRCLE
5
103
100
AcDbEntity
8
0
100
AcDbCircle
10
-44.200000000000031
20
-46.18426020735356
30
0
40
1.0000000000000053
0
LINE
5
104
100
AcDbEntity
8
0
100
AcDbLine
10
66.500000000000043
20
50.5
30
0
11
77.81315610068944
21
46.109673707509565
31
0
0
LINE
5
105
100
AcDbEntity
8
0
100
AcDbLine
10
66.500000000000043
20
50.5
30
0
11
-66.500000000000043
21
50.5
31
0
0
LINE
5
106
100
AcDbEntity
8
0
100
AcDbLine
10
-77.81315610068944
20
46.109673707509558
30
0
11
-66.500000000000043
21
50.5
31
0
0
SPLINE
5
107
100
AcDbEntity
8
0
100
AcDbSpline
70
1064
71
5
72
20
73
14
74
0
42
0.000000001
43
0.0000000001
44
0.0000000001
40
0.045776585402324266
40
0.045776585402324266
40
0.045776585402324266
40
0.045776585402324266
40
0.045776585402324266
40
0.045776585402324266
40
0.10000000000000001
40
0.20000000000000001
40
0.30000000000000004
40
0.40000000000000002
40
0.5
40
0.59999999999999998
40
0.69999999999999996
40
0.79999999999999993
40
0.83337817376308654
40
0.83337817376308654
40
0.83337817376308654
40
0.83337817376308654
40
0.83337817376308654
40
0.83337817376308654
10
-77.81315610068944
20
46.109673707509558
30
0
10
-78.238357191593636
20
45.051262953355611
30
0
10
-79.43964990705075
20
42.010801596828514
30
0
10
-81.376559626248351
20
36.863148730945255
30
0
10
-83.921526648875215
20
29.432278743497008
30
0
10
-86.636139049767266
20
19.703961141214343
30
0
10
-88.522937180995243
20
9.0410594744790505
30
0
10
-88.981022564270035
20
-1.4071758623399981
30
0
10
-88.124509075288998
20
-12.219743056847348
30
0
10
-86.489745896553231
20
-22.130484724875629
30
0
10
-84.765332908598978
20
-29.888045716150586
30
0
10
-83.364852084108122
20
-35.271875072490737
30
0
10
-82.506015525458054
20
-38.312243000086383
30
0
10
-82.287496129595198
20
-39.070488226939233
30
0
0
LINE
5
108
100
AcDbEntity
8
0
100
AcDbLine
10
-66.500000000000014
20
-57.000000000000021
30
0
11
-82.287496129595198
21
-39.07048822693924
31
0
0
LINE
5
109
100
AcDbEntity
8
0
100
AcDbLine
10
-66.500000000000014
20
-57.000000000000021
30
0
11
66.500000000000028
21
-57.000000000000036
31
0
0
LINE
5
110
100
AcDbEntity
8
0
100
AcDbLine
10
82.287496129595198
20
-39.070488226939233
30
0
11
66.500000000000028
21
-57.000000000000036
31
0
0
SPLINE
5
111
100
AcDbEntity
8
0
100
AcDbSpline
70
1064
71
5
72
20
73
14
74
0
42
0.000000001
43
0.0000000001
44
0.0000000001
40
-0.83337817376308643
40
-0.83337817376308643
40
-0.83337817376308643
40
-0.83337817376308643
40
-0.83337817376308643
40
-0.83337817376308643
40
-0.79999999999999993
40
-0.69999999999999996
40
-0.59999999999999998
40
-0.5
40
-0.40000000000000002
40
-0.30000000000000004
40
-0.20000000000000001
40
-0.10000000000000001
40
-0.04577658540232412
40
-0.04577658540232412
40
-0.04577658540232412
40
-0.04577658540232412
40
-0.04577658540232412
40
-0.04577658540232412
10
82.287496129595183
20
-39.070488226939226
30
0
10
82.506015525458025
20
-38.312243000086383
30
0
10
83.364852084108122
20
-35.271875072490737
30
0
10
84.765332908598978
20
-29.888045716150579
30
0
10
86.489745896553231
20
-22.130484724875622
30
0
10
88.124509075288998
20
-12.219743056847348
30
0
10
88.981022564270035
20
-1.4071758623399981
30
0
10
88.522937180995243
20
9.0410594744790505
30
0
10
86.636139049767266
20
19.703961141214343
30
0
10
83.921526648875243
20
29.432278743497008
30
0
10
81.376559626248337
20
36.863148730945255
30
0
10
79.43964990705075
20
42.010801596828522
30
0
10
78.238357191593607
20
45.051262953355611
30
0
10
77.813156100689426
20
46.10967370750955
30
0
0
LWPOLYLINE
5
112
100
AcDbEntity
8
0
100
AcDbPolyline
90
4
70
1
43
0.0
10
-16.5
20
16.5
10
-16.5
20
2.5
10
-2.4999999999999978
20
2.5
10
-2.4999999999999978
20
16.5
0
LWPOLYLINE
5
113
100
AcDbEntity
8
0
100
AcDbPolyline
90
4
70
1
43
0.0
10
40.499999999999986
20
-2.5
10
40.499999999999986
20
-16.5
10
54.499999999999993
20
-16.5
10
54.499999999999993
20
-2.5
0
LWPOLYLINE
5
114
100
AcDbEntity
8
0
100
AcDbPolyline
90
4
70
1
43
0.0
10
-54.499999999999993
20
16.5
10
-54.499999999999993
20
2.5
10
-40.499999999999986
20
2.5
10
-40.499999999999986
20
16.5
0
LWPOLYLINE
5
115
100
AcDbEntity
8
0
100
AcDbPolyline
90
4
70
1
43
0.0
10
-35.5
20
16.5
10
-35.5
20
2.5
10
-21.499999999999993
20
2.5
10
-21.499999999999993
20
16.5
0
LWPOLYLINE
5
116
100
AcDbEntity
8
0
100
AcDbPolyline
90
4
70
1
43
0.0
10
40.499999999999986
20
35.5
10
40.499999999999986
20
21.500000000000004
10
54.499999999999993
20
21.500000000000004
10
54.499999999999993
20
35.5
0
LWPOLYLINE
5
117
100
AcDbEntity
8
0
100
AcDbPolyline
90
4
70
1
43
0.0
10
21.5
20
16.5
10
21.5
20
2.5
10
35.499999999999993
20
2.5
10
35.499999999999993
20
16.5
0
LWPOLYLINE
5
118
100
AcDbEntity
8
0
100
AcDbPolyline
90
4
70
1
43
0.0
10
40.499999999999986
20
16.5
10
40.499999999999986
20
2.5
10
54.499999999999993
20
2.5
10
54.499999999999993
20
16.5
0
LWPOLYLINE
5
119
100
AcDbEntity
8
0
100
AcDbPolyline
90
4
70
1
43
0.0
10
21.5
20
-2.5
10
21.5
20
-16.5
10
35.499999999999993
20
-16.5
10
35.499999999999993
20
-2.5
0
LWPOLYLINE
5
120
100
AcDbEntity
8
0
100
AcDbPolyline
90
4
70
1
43
0.0
10
2.5
20
-2.5
10
2.5
20
-16.5
10
16.5
20
-16.5
10
16.5
20
-2.5
0
LWPOLYLINE
5
121
100
AcDbEntity
8
0
100
AcDbPolyline
90
4
70
1
43
0.0
10
-16.5
20
-2.5
10
-16.5
20
-16.5
10
-2.4999999999999978
20
-16.5
10
-2.4999999999999978
20
-2.5
0
LWPOLYLINE
5
122
100
AcDbEntity
8
0
100
AcDbPolyline
90
4
70
1
43
0.0
10
-35.5
20
-2.5
10
-35.5
20
-16.5
10
-21.499999999999993
20
-16.5
10
-21.499999999999993
20
-2.5
0
LWPOLYLINE
5
123
100
AcDbEntity
8
0
100
AcDbPolyline
90
4
70
1
43
0.0
10
-54.499999999999993
20
-2.5
10
-54.499999999999993
20
-16.5
10
-40.499999999999986
20
-16.5
10
-40.499999999999986
20
-2.5
0
LWPOLYLINE
5
124
100
AcDbEntity
8
0
100
AcDbPolyline
90
4
70
1
43
0.0
10
-16.5
20
-21.500000000000004
10
-16.5
20
-35.5
10
-2.4999999999999978
20
-35.5
10
-2.4999999999999978
20
-21.500000000000004
0
LWPOLYLINE
5
125
100
AcDbEntity
8
0
100
AcDbPolyline
90
4
70
1
43
0.0
10
2.5
20
-21.500000000000004
10
2.5
20
-35.5
10
16.5
20
-35.5
10
16.5
20
-21.500000000000004
0
LWPOLYLINE
5
126
100
AcDbEntity
8
0
100
AcDbPolyline
90
4
70
1
43
0.0
10
21.5
20
-21.500000000000004
10
21.5
20
-35.5
10
35.499999999999993
20
-35.5
10
35.499999999999993
20
-21.500000000000004
0
LWPOLYLINE
5
127
100
AcDbEntity
8
0
100
AcDbPolyline
90
4
70
1
43
0.0
10
40.499999999999986
20
-21.500000000000004
10
40.499999999999986
20
-35.5
10
54.499999999999993
20
-35.5
10
54.499999999999993
20
-21.500000000000004
0
LWPOLYLINE
5
128
100
AcDbEntity
8
0
100
AcDbPolyline
90
4
70
1
43
0.0
10
-54.499999999999993
20
-21.500000000000004
10
-54.499999999999993
20
-35.5
10
-40.499999999999986
20
-35.5
10
-40.499999999999986
20
-21.500000000000004
0
LWPOLYLINE
5
129
100
AcDbEntity
8
0
100
AcDbPolyline
90
4
70
1
43
0.0
10
-35.5
20
-21.500000000000004
10
-35.5
20
-35.5
10
-21.499999999999993
20
-35.5
10
-21.499999999999993
20
-21.500000000000004
0
LWPOLYLINE
5
130
100
AcDbEntity
8
0
100
AcDbPolyline
90
4
70
1
43
0.0
10
-16.5
20
35.5
10
-16.5
20
21.500000000000004
10
-2.4999999999999978
20
21.500000000000004
10
-2.4999999999999978
20
35.5
0
LWPOLYLINE
5
131
100
AcDbEntity
8
0
100
AcDbPolyline
90
4
70
1
43
0.0
10
21.5
20
35.5
10
21.5
20
21.500000000000004
10
35.499999999999993
20
21.500000000000004
10
35.499999999999993
20
35.5
0
LWPOLYLINE
5
132
100
AcDbEntity
8
0
100
AcDbPolyline
90
4
70
1
43
0.0
10
-35.5
20
35.5
10
-35.5
20
21.500000000000004
10
-21.499999999999993
20
21.500000000000004
10
-21.499999999999993
20
35.5
0
LWPOLYLINE
5
133
100
AcDbEntity
8
0
100
AcDbPolyline
90
4
70
1
43
0.0
10
2.5
20
16.5
10
2.5
20
2.5
10
16.5
20
2.5
10
16.5
20
16.5
0
LWPOLYLINE
5
134
100
AcDbEntity
8
0
100
AcDbPolyline
90
4
70
1
43
0.0
10
2.5
20
35.5
10
2.5
20
21.500000000000004
10
16.5
20
21.500000000000004
10
16.5
20
35.5
0
LWPOLYLINE
5
135
100
AcDbEntity
8
0
100
AcDbPolyline
90
4
70
1
43
0.0
10
-54.499999999999993
20
35.5
10
-54.499999999999993
20
21.500000000000004
10
-40.499999999999986
20
21.500000000000004
10
-40.499999999999986
20
35.5
0
ENDSEC
0
SECTION
2
OBJECTS
0
DICTIONARY
5
C
100
AcDbDictionary
3
ACAD_GROUP
350
D
3
ACAD_MLINESTYLE
350
17
0
DICTIONARY
5
D
100
AcDbDictionary
0
DICTIONARY
5
1A
330
C
100
AcDbDictionary
0
DICTIONARY
5
17
100
AcDbDictionary
0
ENDSEC
0
EOF
