0
SECTION
2
HEADER
9
$INSUNITS
70
4
9
$ACADVER
1
AC1014
9
$HANDSEED
5
FFFF
0
ENDSEC
0
SECTION
2
TABLES
0
TABLE
2
VPORT
5
8
100
AcDbSymbolTable
0
ENDTAB
0
TABLE
2
LTYPE
5
5
100
AcDbSymbolTable
0
LTYPE
5
14
100
AcDbSymbolTableRecord
100
AcDbLinetypeTableRecord
2
BYBLOCK
70
0
0
LTYPE
5
15
100
AcDbSymbolTableRecord
100
AcDbLinetypeTableRecord
2
BYLAYER
70
0
0
ENDTAB
0
TABLE
2
LAYER
5
2
100
AcDbSymbolTable
70
2
0
LAYER
5
50
100
AcDbSymbolTableRecord
100
AcDbLayerTableRecord
2
0
70
0
6
CONTINUOUS
0
ENDTAB
0
TABLE
2
STYLE
5
3
100
AcDbSymbolTable
70
1
0
STYLE
5
11
100
AcDbSymbolTableRecord
100
AcDbTextStyleTableRecord
2
STANDARD
70
0
0
ENDTAB
0
TABLE
2
VIEW
5
6
100
AcDbSymbolTable
70
0
0
ENDTAB
0
TABLE
2
UCS
5
7
100
AcDbSymbolTable
70
0
0
ENDTAB
0
TABLE
2
APPID
5
9
100
AcDbSymbolTable
70
2
0
APPID
5
12
100
AcDbSymbolTableRecord
100
AcDbRegAppTableRecord
2
ACAD
70
0
0
ENDTAB
0
TABLE
2
DIMSTYLE
5
A
100
AcDbSymbolTable
70
1
0
ENDTAB
0
TABLE
2
BLOCK_RECORD
5
1
100
AcDbSymbolTable
70
1
0
BLOCK_RECORD
5
1F
100
AcDbSymbolTableRecord
100
AcDbBlockTableRecord
2
*MODEL_SPACE
0
BLOCK_RECORD
5
1B
100
AcDbSymbolTableRecord
100
AcDbBlockTableRecord
2
*PAPER_SPACE
0
ENDTAB
0
ENDSEC
0
SECTION
2
BLOCKS
0
BLOCK
5
20
100
AcDbEntity
100
AcDbBlockBegin
2
*MODEL_SPACE
0
ENDBLK
5
21
100
AcDbEntity
100
AcDbBlockEnd
0
BLOCK
5
1C
100
AcDbEntity
100
AcDbBlockBegin
2
*PAPER_SPACE
0
ENDBLK
5
1D
100
AcDbEntity
100
AcDbBlockEnd
0
ENDSEC
0
SECTION
2
ENTITIES
0
LINE
5
100
100
AcDbEntity
8
0
100
AcDbLine
10
-35.027087237736595
20
-4.1000000000000014
30
0
11
-35.027087237736595
21
-12.000000000000002
31
0
0
LINE
5
101
100
AcDbEntity
8
0
100
AcDbLine
10
-35.027087237736595
20
-12.000000000000002
30
0
11
-51
21
-12.000000000000002
31
0
0
LINE
5
102
100
AcDbEntity
8
0
100
AcDbLine
10
-51
20
-12.000000000000002
30
0
11
-51
21
0
31
0
0
LINE
5
103
100
AcDbEntity
8
0
100
AcDbLine
10
-51
20
0
30
0
11
51.000000000000014
21
0
31
0
0
LINE
5
104
100
AcDbEntity
8
0
100
AcDbLine
10
51.000000000000014
20
0
30
0
11
51.000000000000014
21
-12.000000000000002
31
0
0
LINE
5
105
100
AcDbEntity
8
0
100
AcDbLine
10
51.000000000000014
20
-12.000000000000002
30
0
11
42.548437072733243
21
-12.000000000000002
31
0
0
SPLINE
5
106
100
AcDbEntity
8
0
100
AcDbSpline
70
1064
71
3
72
22
73
18
74
0
42
0.000000001
43
0.0000000001
44
0.0000000001
40
0
40
0
40
0
40
0
40
0.022769499099910932
40
0.022769499099910932
40
0.062723821750758274
40
0.062723821750758274
40
0.19941798378339504
40
0.19941798378339504
40
0.30671851863443839
40
0.30671851863443839
40
0.43898045677439868
40
0.43898045677439868
40
0.56213093955897608
40
0.56213093955897608
40
0.6844692219075682
40
0.6844692219075682
40
0.8006352067040664
40
0.8006352067040664
40
0.8006352067040664
40
0.8006352067040664
10
42.548437072733243
20
-12.000000000000002
30
0
10
42.548437072733243
20
-11.924101669666964
30
0
10
42.564585781230129
20
-11.848810643316771
30
0
10
42.63113050369877
20
-11.651059289150549
30
0
10
42.704266120165954
20
-11.517730956561463
30
0
10
43.109363085357487
20
-10.881233077883298
30
0
10
43.654867424901738
20
-10.239856062848373
30
0
10
44.253425289714698
20
-8.5222721544553384
30
0
10
44.299756219722099
20
-7.821923360399464
30
0
10
44.222476372019408
20
-6.5416522844233516
30
0
10
44.04175859949207
20
-5.8441902620554345
30
0
10
43.432911956596953
20
-4.6136692257262748
30
0
10
43.029756165485807
20
-4.0854345167556652
30
0
10
42.04280189900463
20
-3.2100468462651452
30
0
10
41.471054505720552
20
-2.8715216416079188
30
0
10
40.267567255728565
20
-2.432840117373944
30
0
10
39.651836103559233
20
-2.3250000000000011
30
0
10
39.025000566244124
20
-2.3250000000000011
30
0
0
LINE
5
107
100
AcDbEntity
8
0
100
AcDbLine
10
39.025000566244124
20
-2.3250000000000006
30
0
11
36.975000566244127
21
-2.3250000000000011
31
0
0
SPLINE
5
108
100
AcDbEntity
8
0
100
AcDbSpline
70
1064
71
3
72
24
73
20
74
0
42
0.000000001
43
0.0000000001
44
0.0000000001
40
0
40
0
40
0
40
0
40
0.23228942728394347
40
0.23228942728394347
40
0.47931010945518426
40
0.47931010945518426
40
0.72344623575458111
40
0.72344623575458111
40
0.98134600308469
40
0.98134600308469
40
1.2575452034298975
40
1.2575452034298975
40
1.5548929477821369
40
1.5548929477821369
40
1.7103267373465438
40
1.7103267373465438
40
1.7779445860109535
40
1.7779445860109535
40
1.8345651496686075
40
1.8345651496686075
40
1.8345651496686075
40
1.8345651496686075
10
36.975000566244127
20
-2.3250000000000011
30
0
10
36.200702475297646
20
-2.3250000000000011
30
0
10
35.504402704650985
20
-2.4892073982490412
30
0
10
34.273054532248807
20
-3.0068706024507663
30
0
10
33.695152834059158
20
-3.3956427641256717
30
0
10
32.734227264803536
20
-4.3726806929849253
30
0
10
32.360950796277457
20
-4.9461556264875721
30
0
10
31.839895992177762
20
-6.2461767492919567
30
0
10
31.725258633781188
20
-6.9304701900599284
30
0
10
31.724725085928632
20
-8.2607820587495411
30
0
10
31.851055619033808
20
-8.8913990277363606
30
0
10
32.342759700324251
20
-10.12789625499776
30
0
10
32.684180369328878
20
-10.617703942428516
30
0
10
33.101397738004749
20
-11.216546891152197
30
0
10
33.227985470306152
20
-11.398306853905016
30
0
10
33.35605549457501
20
-11.637911286251079
30
0
10
33.392373822731201
20
-11.716283057434701
30
0
10
33.438031950631675
20
-11.86156025284272
30
0
10
33.451564059755007
20
-11.930496761085552
30
0
10
33.451564059755007
20
-12.000000000000002
30
0
0
LINE
5
109
100
AcDbEntity
8
0
100
AcDbLine
10
33.451564059755007
20
-12.000000000000004
30
0
11
-21.599999360740185
21
-12.000000000000002
31
0
0
LINE
5
110
100
AcDbEntity
8
0
100
AcDbLine
10
-21.599999360740185
20
-12.000000000000002
30
0
11
-21.599999360740185
21
-4.1000000000000014
31
0
0
ARC
5
111
100
AcDbEntity
8
0
100
AcDbCircle
10
-23.149999360740185
20
-4.1000000000000014
30
0
40
1.5500000000000025
100
AcDbArc
50
0
51
90
0
LINE
5
112
100
AcDbEntity
8
0
100
AcDbLine
10
-23.149999360740185
20
-2.5499999999999989
30
0
11
-33.477087237736605
21
-2.5500000000000007
31
0
0
ARC
5
113
100
AcDbEntity
8
0
100
AcDbCircle
10
-33.477087237736605
20
-4.1000000000000005
30
0
40
1.5500000000000003
100
AcDbArc
50
90
51
180
0
LWPOLYLINE
5
114
100
AcDbEntity
8
0
100
AcDbPolyline
90
8
70
1
43
0.0
10
-16.09999958872795
20
-7
10
-16.09999958872795
20
-6.7000000000000002
42
-0.4142135623730957
10
-14.54999958872795
20
-5.1500000000000004
10
-12.449999807775018
20
-5.1500000000000021
42
-0.4142135623730957
10
-10.899999807775025
20
-6.6999999999999993
10
-10.899999807775023
20
-7
42
-0.41421356237309587
10
-12.449999807775022
20
-8.5500000000000007
10
-14.54999958872795
20
-8.5499999999999989
42
-0.41421356237309481
0
ENDSEC
0
SECTION
2
OBJECTS
0
DICTIONARY
5
C
100
AcDbDictionary
3
ACAD_GROUP
350
D
3
ACAD_MLINESTYLE
350
17
0
DICTIONARY
5
D
100
AcDbDictionary
0
DICTIONARY
5
1A
330
C
100
AcDbDictionary
0
DICTIONARY
5
17
100
AcDbDictionary
0
ENDSEC
0
EOF
