0
SECTION
2
HEADER
9
$INSUNITS
70
4
9
$ACADVER
1
AC1014
9
$HANDSEED
5
FFFF
0
ENDSEC
0
SECTION
2
TABLES
0
TABLE
2
VPORT
5
8
100
AcDbSymbolTable
0
ENDTAB
0
TABLE
2
LTYPE
5
5
100
AcDbSymbolTable
0
LTYPE
5
14
100
AcDbSymbolTableRecord
100
AcDbLinetypeTableRecord
2
BYBLOCK
70
0
0
LTYPE
5
15
100
AcDbSymbolTableRecord
100
AcDbLinetypeTableRecord
2
BYLAYER
70
0
0
ENDTAB
0
TABLE
2
LAYER
5
2
100
AcDbSymbolTable
70
2
0
LAYER
5
50
100
AcDbSymbolTableRecord
100
AcDbLayerTableRecord
2
0
70
0
6
CONTINUOUS
0
ENDTAB
0
TABLE
2
STYLE
5
3
100
AcDbSymbolTable
70
1
0
STYLE
5
11
100
AcDbSymbolTableRecord
100
AcDbTextStyleTableRecord
2
STANDARD
70
0
0
ENDTAB
0
TABLE
2
VIEW
5
6
100
AcDbSymbolTable
70
0
0
ENDTAB
0
TABLE
2
UCS
5
7
100
AcDbSymbolTable
70
0
0
ENDTAB
0
TABLE
2
APPID
5
9
100
AcDbSymbolTable
70
2
0
APPID
5
12
100
AcDbSymbolTableRecord
100
AcDbRegAppTableRecord
2
ACAD
70
0
0
ENDTAB
0
TABLE
2
DIMSTYLE
5
A
100
AcDbSymbolTable
70
1
0
ENDTAB
0
TABLE
2
BLOCK_RECORD
5
1
100
AcDbSymbolTable
70
1
0
BLOCK_RECORD
5
1F
100
AcDbSymbolTableRecord
100
AcDbBlockTableRecord
2
*MODEL_SPACE
0
BLOCK_RECORD
5
1B
100
AcDbSymbolTableRecord
100
AcDbBlockTableRecord
2
*PAPER_SPACE
0
ENDTAB
0
ENDSEC
0
SECTION
2
BLOCKS
0
BLOCK
5
20
100
AcDbEntity
100
AcDbBlockBegin
2
*MODEL_SPACE
0
ENDBLK
5
21
100
AcDbEntity
100
AcDbBlockEnd
0
BLOCK
5
1C
100
AcDbEntity
100
AcDbBlockBegin
2
*PAPER_SPACE
0
ENDBLK
5
1D
100
AcDbEntity
100
AcDbBlockEnd
0
ENDSEC
0
SECTION
2
ENTITIES
0
CIRCLE
5
100
100
AcDbEntity
8
0
100
AcDbCircle
10
58.600340929637568
20
43.000000640749931
30
0
40
1.549999999999996
0
CIRCLE
5
101
100
AcDbEntity
8
0
100
AcDbCircle
10
44.200000000000003
20
-46.184260207353596
30
0
40
1.5500000000000052
0
CIRCLE
5
102
100
AcDbEntity
8
0
100
AcDbCircle
10
-58.600340929637525
20
43.000000640749988
30
0
40
1.549999999999996
0
CIRCLE
5
103
100
AcDbEntity
8
0
100
AcDbCircle
10
-44.200000000000031
20
-46.18426020735356
30
0
40
1.5500000000000052
0
LINE
5
104
100
AcDbEntity
8
0
100
AcDbLine
10
58.400000000000006
20
50.5
30
0
11
47.000000000000014
21
49.300000000000004
31
0
0
LINE
5
105
100
AcDbEntity
8
0
100
AcDbLine
10
47.000000000000014
20
49.300000000000004
30
0
11
47.57390271650911
21
46.600000000000001
31
0
0
LINE
5
106
100
AcDbEntity
8
0
100
AcDbLine
10
47.57390271650911
20
46.600000000000001
30
0
11
51.000000000000043
21
46.600000000000001
31
0
0
ARC
5
107
100
AcDbEntity
8
0
100
AcDbCircle
10
51.000000000000028
20
45.04999999999999
30
0
40
1.5500000000000025
100
AcDbArc
50
-90
51
89.999999999999474
0
LINE
5
108
100
AcDbEntity
8
0
100
AcDbLine
10
51.000000000000028
20
43.499999999999986
30
0
11
45.830938910814936
21
43.5
31
0
0
LINE
5
109
100
AcDbEntity
8
0
100
AcDbLine
10
45.830938910814936
20
43.5
30
0
11
47
21
38
31
0
0
LINE
5
110
100
AcDbEntity
8
0
100
AcDbLine
10
47
20
38
30
0
11
55.450000000000053
21
38
31
0
0
ARC
5
111
100
AcDbEntity
8
0
100
AcDbCircle
10
55.450000000000053
20
36.449999999999996
30
0
40
1.5500000000000025
100
AcDbArc
50
0
51
90
0
LINE
5
112
100
AcDbEntity
8
0
100
AcDbLine
10
57.000000000000057
20
36.449999999999996
30
0
11
57
21
-36.449999999999996
31
0
0
ARC
5
113
100
AcDbEntity
8
0
100
AcDbCircle
10
55.450000000000003
20
-36.449999999999996
30
0
40
1.5500000000000025
100
AcDbArc
50
-90
51
0
0
LINE
5
114
100
AcDbEntity
8
0
100
AcDbLine
10
55.450000000000003
20
-38
30
0
11
-55.450000000000003
21
-38
31
0
0
ARC
5
115
100
AcDbEntity
8
0
100
AcDbCircle
10
-55.450000000000003
20
-36.449999999999996
30
0
40
1.5500000000000025
100
AcDbArc
50
180
51
270
0
LINE
5
116
100
AcDbEntity
8
0
100
AcDbLine
10
-57
20
-36.449999999999996
30
0
11
-57
21
36.449999999999996
31
0
0
ARC
5
117
100
AcDbEntity
8
0
100
AcDbCircle
10
-55.450000000000003
20
36.449999999999996
30
0
40
1.5500000000000025
100
AcDbArc
50
90
51
180
0
LINE
5
118
100
AcDbEntity
8
0
100
AcDbLine
10
-55.450000000000003
20
38
30
0
11
-47
21
38
31
0
0
LINE
5
119
100
AcDbEntity
8
0
100
AcDbLine
10
-47
20
38
30
0
11
-45.830938910814865
21
43.5
31
0
0
LINE
5
120
100
AcDbEntity
8
0
100
AcDbLine
10
-45.830938910814865
20
43.5
30
0
11
-51
21
43.5
31
0
0
ARC
5
121
100
AcDbEntity
8
0
100
AcDbCircle
10
-51
20
45.04999999999999
30
0
40
1.5500000000000025
100
AcDbArc
50
90
51
270
0
LINE
5
122
100
AcDbEntity
8
0
100
AcDbLine
10
-51
20
46.599999999999994
30
0
11
-47.573902716509053
21
46.600000000000001
31
0
0
LINE
5
123
100
AcDbEntity
8
0
100
AcDbLine
10
-47.573902716509053
20
46.600000000000001
30
0
11
-47
21
49.299999999999997
31
0
0
LINE
5
124
100
AcDbEntity
8
0
100
AcDbLine
10
-47
20
49.299999999999997
30
0
11
-58.399999999999999
21
50.5
31
0
0
LINE
5
125
100
AcDbEntity
8
0
100
AcDbLine
10
-58.399999999999999
20
50.5
30
0
11
-66.500000000000043
21
50.5
31
0
0
LINE
5
126
100
AcDbEntity
8
0
100
AcDbLine
10
-77.81315610068944
20
46.109673707509565
30
0
11
-66.500000000000043
21
50.5
31
0
0
SPLINE
5
127
100
AcDbEntity
8
0
100
AcDbSpline
70
1064
71
5
72
20
73
14
74
0
42
0.000000001
43
0.0000000001
44
0.0000000001
40
0.045776585402324259
40
0.045776585402324259
40
0.045776585402324259
40
0.045776585402324259
40
0.045776585402324259
40
0.045776585402324259
40
0.10000000000000001
40
0.20000000000000001
40
0.30000000000000004
40
0.40000000000000002
40
0.5
40
0.59999999999999998
40
0.69999999999999996
40
0.79999999999999993
40
0.83337817376308654
40
0.83337817376308654
40
0.83337817376308654
40
0.83337817376308654
40
0.83337817376308654
40
0.83337817376308654
10
-77.81315610068944
20
46.109673707509558
30
0
10
-78.238357191593622
20
45.051262953355611
30
0
10
-79.439649907050779
20
42.010801596828522
30
0
10
-81.376559626248351
20
36.863148730945255
30
0
10
-83.921526648875215
20
29.432278743497005
30
0
10
-86.636139049767266
20
19.703961141214343
30
0
10
-88.522937180995243
20
9.0410594744790505
30
0
10
-88.981022564270035
20
-1.4071758623399981
30
0
10
-88.124509075288998
20
-12.219743056847348
30
0
10
-86.489745896553231
20
-22.130484724875629
30
0
10
-84.765332908598978
20
-29.888045716150586
30
0
10
-83.364852084108122
20
-35.271875072490737
30
0
10
-82.506015525458054
20
-38.312243000086383
30
0
10
-82.287496129595198
20
-39.070488226939233
30
0
0
LINE
5
128
100
AcDbEntity
8
0
100
AcDbLine
10
-66.500000000000028
20
-57.000000000000021
30
0
11
-82.287496129595198
21
-39.07048822693924
31
0
0
LINE
5
129
100
AcDbEntity
8
0
100
AcDbLine
10
-66.500000000000028
20
-57.000000000000021
30
0
11
66.500000000000028
21
-57.000000000000036
31
0
0
LINE
5
130
100
AcDbEntity
8
0
100
AcDbLine
10
82.287496129595198
20
-39.070488226939233
30
0
11
66.500000000000028
21
-57.000000000000036
31
0
0
SPLINE
5
131
100
AcDbEntity
8
0
100
AcDbSpline
70
1064
71
5
72
20
73
14
74
0
42
0.000000001
43
0.0000000001
44
0.0000000001
40
0.045776585402324266
40
0.045776585402324266
40
0.045776585402324266
40
0.045776585402324266
40
0.045776585402324266
40
0.045776585402324266
40
0.10000000000000001
40
0.20000000000000001
40
0.30000000000000004
40
0.40000000000000002
40
0.5
40
0.59999999999999998
40
0.69999999999999996
40
0.79999999999999993
40
0.83337817376308654
40
0.83337817376308654
40
0.83337817376308654
40
0.83337817376308654
40
0.83337817376308654
40
0.83337817376308654
10
77.81315610068944
20
46.109673707509558
30
0
10
78.238357191593636
20
45.051262953355611
30
0
10
79.43964990705075
20
42.010801596828514
30
0
10
81.376559626248351
20
36.863148730945255
30
0
10
83.921526648875215
20
29.432278743497008
30
0
10
86.636139049767266
20
19.703961141214343
30
0
10
88.522937180995243
20
9.0410594744790505
30
0
10
88.981022564270035
20
-1.4071758623399981
30
0
10
88.124509075288998
20
-12.219743056847348
30
0
10
86.489745896553231
20
-22.130484724875629
30
0
10
84.765332908598978
20
-29.888045716150586
30
0
10
83.364852084108122
20
-35.271875072490737
30
0
10
82.506015525458054
20
-38.312243000086383
30
0
10
82.287496129595198
20
-39.070488226939233
30
0
0
LINE
5
132
100
AcDbEntity
8
0
100
AcDbLine
10
66.500000000000043
20
50.5
30
0
11
77.81315610068944
21
46.109673707509558
31
0
0
LINE
5
133
100
AcDbEntity
8
0
100
AcDbLine
10
66.500000000000043
20
50.5
30
0
11
58.400000000000006
21
50.5
31
0
0
ENDSEC
0
SECTION
2
OBJECTS
0
DICTIONARY
5
C
100
AcDbDictionary
3
ACAD_GROUP
350
D
3
ACAD_MLINESTYLE
350
17
0
DICTIONARY
5
D
100
AcDbDictionary
0
DICTIONARY
5
1A
330
C
100
AcDbDictionary
0
DICTIONARY
5
17
100
AcDbDictionary
0
ENDSEC
0
EOF
